<svg width="42" height="42" viewBox="0 0 42 42" fill="none" xmlns="http://www.w3.org/2000/svg">
<path d="M18.3538 0.762287L18.3528 0.762416C8.31804 2.10615 0.75 10.7677 0.75 20.9143C0.75 32.1299 9.87079 41.2492 21.0886 41.2492C31.238 41.2492 39.9009 33.6828 41.2376 23.6428L41.2377 23.642C41.2955 23.1973 41.1478 22.7638 40.8289 22.4446C40.5177 22.1294 40.0714 21.9846 39.6301 22.042L39.6281 22.0422C38.8674 22.1473 38.0773 22.2016 37.2795 22.2016C27.6361 22.2016 19.7943 14.3615 19.7943 4.71976C19.7943 3.93114 19.8522 3.13423 19.9536 2.37294C20.0201 1.93711 19.8714 1.49225 19.5538 1.17351C19.2421 0.849595 18.7948 0.704959 18.3538 0.762287ZM16.9415 4.71316L16.9414 4.71316V4.72058C16.9414 15.9361 26.0622 25.0554 37.28 25.0554C37.5506 25.0554 37.8191 25.0499 38.084 25.0401C36.2222 32.7699 29.2003 38.3972 21.089 38.3972C11.4455 38.3972 3.60378 30.557 3.60378 20.9153C3.60378 12.805 9.23209 5.7845 16.9641 3.92333C16.9584 4.08692 16.9541 4.25112 16.9498 4.41389C16.9471 4.51435 16.9444 4.61426 16.9415 4.71316Z" fill="black" stroke="black" stroke-width="0.5"/>
</svg>
