<svg width="35" height="35" viewBox="0 0 35 35" fill="none" xmlns="http://www.w3.org/2000/svg">
<path d="M4.47172 0.768355C3.47042 -0.256118 1.80917 -0.256118 0.785111 0.768355C-0.261704 1.79283 -0.261704 3.43199 0.785111 4.46784L13.7906 17.49L0.785111 30.5009C-0.261704 31.5253 -0.261704 33.1873 0.785111 34.2231C1.80917 35.259 3.47042 35.259 4.47172 34.2231L17.5 21.2009L30.5055 34.2231C31.5523 35.259 33.1908 35.259 34.2149 34.2231C35.2617 33.1873 35.2617 31.5253 34.2149 30.5009L21.2094 17.49L34.2149 4.46784C35.2617 3.43199 35.2617 1.79283 34.2149 0.768355C33.1908 -0.256118 31.5523 -0.256118 30.5055 0.768355L17.5 13.7792L4.47172 0.768355Z" fill="black"/>
</svg>
