<svg width="50" height="50" viewBox="0 0 50 50" fill="none" xmlns="http://www.w3.org/2000/svg">
<path d="M25 13.3511C18.5441 13.3511 13.291 18.5188 13.291 24.8704C13.291 31.2219 18.5439 36.3986 25 36.3986C31.4562 36.3986 36.7091 31.2308 36.7091 24.8793C36.7091 18.528 31.4562 13.3511 25 13.3511ZM25 33.158C20.3551 33.158 16.5849 29.4492 16.5849 24.8793C16.5849 20.3096 20.3645 16.6005 25 16.6005C29.6356 16.6005 33.4152 20.3094 33.4152 24.8793C33.4152 29.4394 29.6452 33.158 25 33.158Z" fill="black"/>
<path d="M26.647 8.77221V1.62027C26.647 0.727824 25.9072 0 25 0C24.0929 0 23.3531 0.727857 23.3531 1.62027V8.77221C23.3531 9.66465 24.0929 10.3925 25 10.3925C25.9072 10.3925 26.647 9.66462 26.647 8.77221Z" fill="black"/>
<path d="M25 39.6074C24.0929 39.6074 23.3531 40.3353 23.3531 41.2277V48.3796C23.3531 49.2721 24.0929 49.9999 25 49.9999C25.9072 49.9999 26.647 49.272 26.647 48.3796V41.2277C26.647 40.3352 25.9072 39.6074 25 39.6074Z" fill="black"/>
<path d="M10.5637 25.4052C10.5637 24.5127 9.82381 23.7849 8.9167 23.7849H1.64696C0.739812 23.7849 0 24.5128 0 25.4052C0 26.2976 0.739845 27.0254 1.64696 27.0254H8.9167C9.82384 27.0254 10.5637 26.2976 10.5637 25.4052Z" fill="black"/>
<path d="M48.353 23.7849H41.0833C40.1762 23.7849 39.4363 24.5128 39.4363 25.4052C39.4363 26.2976 40.1762 27.0254 41.0833 27.0254H48.353C49.2602 27.0254 50 26.2976 50 25.4052C50 24.5128 49.2666 23.7849 48.353 23.7849Z" fill="black"/>
<path d="M38.356 14.5509L43.4931 9.49703C44.1365 8.86411 44.1365 7.83561 43.4931 7.20589C42.8498 6.57297 41.8043 6.57297 41.1643 7.20589L36.0272 12.2597C35.3838 12.8927 35.3838 13.9212 36.0272 14.5509C36.3488 14.8673 36.767 15.0287 37.1884 15.0287C37.6066 15.0287 38.0343 14.8642 38.356 14.5509Z" fill="black"/>
<path d="M12.4675 35.4491L7.33044 40.503C6.6871 41.1359 6.6871 42.1644 7.33044 42.7941C7.6521 43.1106 8.07028 43.272 8.49171 43.272C8.91313 43.272 9.33124 43.1106 9.65297 42.7941L14.7901 37.7403C15.4334 37.1073 15.4334 36.0788 14.7901 35.4491C14.1467 34.8194 13.1076 34.8194 12.4675 35.4491Z" fill="black"/>
<path d="M12.8052 15.028C13.2266 15.028 13.6447 14.8666 13.9664 14.5502C14.6098 13.9172 14.6098 12.8887 13.9664 12.259L8.82933 7.20516C8.18599 6.57224 7.14054 6.57224 6.50045 7.20516C5.85711 7.83807 5.85711 8.86658 6.50045 9.4963L11.6376 14.5502C11.9657 14.8634 12.3837 15.028 12.8052 15.028Z" fill="black"/>
<path d="M37.5325 35.4491C36.8892 34.8161 35.8438 34.8161 35.2037 35.4491C34.5603 36.082 34.5603 37.1105 35.2037 37.7402L40.3408 42.7941C40.6624 43.1105 41.0806 43.2719 41.502 43.2719C41.9234 43.2719 42.3416 43.1105 42.6633 42.7941C43.3066 42.1611 43.3066 41.1326 42.6633 40.5029L37.5325 35.4491Z" fill="black"/>
</svg>
