<svg width="36" height="34" viewBox="0 0 36 34" fill="none" xmlns="http://www.w3.org/2000/svg">
<path d="M18.019 5.49532C18.6639 5.49532 19.1949 4.96837 19.1949 4.32851V1.20445C19.1949 0.526949 18.6639 0 18.019 0C17.3741 0 16.843 0.526949 16.843 1.16682V4.29087C16.843 4.96837 17.3741 5.49532 18.019 5.49532Z" fill="black"/>
<path d="M7.51107 9.1463C7.73868 9.37213 8.04216 9.48505 8.34563 9.48505C8.64911 9.48505 8.95259 9.37213 9.1802 9.1463C9.63541 8.69463 9.63541 7.94184 9.1802 7.45253L6.94205 5.23182C6.48684 4.78015 5.72814 4.78015 5.23499 5.23182C4.74184 5.68349 4.77978 6.43627 5.23499 6.92558L7.51107 9.1463Z" fill="black"/>
<path d="M4.36249 16.7117H1.17597C0.531085 16.7117 0 17.2386 0 17.8785C0 18.5184 0.531085 19.0453 1.17597 19.0453H4.36249C5.00738 19.0453 5.53846 18.5184 5.53846 17.8785C5.53846 17.2386 5.00738 16.7117 4.36249 16.7117Z" fill="black"/>
<path d="M34.862 16.7117H31.6755C31.0306 16.7117 30.4995 17.2386 30.4995 17.8785C30.4995 18.5184 31.0306 19.0453 31.6755 19.0453H34.824C35.4689 19.0453 36 18.5184 36 17.8785C36 17.2386 35.5069 16.7117 34.862 16.7117Z" fill="black"/>
<path d="M27.6923 9.48505C27.9958 9.48505 28.2993 9.37213 28.5269 9.1463L30.765 6.92558C31.2202 6.47391 31.2202 5.72113 30.765 5.23182C30.3098 4.78015 29.5511 4.78015 29.058 5.23182L26.8198 7.45253C26.3646 7.9042 26.3646 8.65699 26.8578 9.1463C27.0854 9.37213 27.3888 9.48505 27.6923 9.48505Z" fill="black"/>
<path d="M29.3994 25.7076H27.7682V17.8786C27.7682 12.5338 23.4057 8.20532 18.019 8.20532C12.6322 8.20532 8.26975 12.5338 8.26975 17.8786V25.7076H6.63856C5.99367 25.7076 5.46259 26.2345 5.46259 26.8744V32.6332C5.46259 33.273 5.99367 33.8 6.63856 33.8H29.3994C30.0442 33.8 30.5753 33.273 30.5753 32.6332V26.912C30.5753 26.2721 30.0442 25.7076 29.3994 25.7076ZM10.6596 17.8786C10.6596 13.8512 13.96 10.5766 18.019 10.5766C22.078 10.5766 25.3783 13.8512 25.3783 17.8786V25.7076H10.6596V17.8786ZM28.2234 31.504H7.81454V28.0788H28.1855V31.504H28.2234Z" fill="black"/>
<path d="M18.019 20.0616C18.6639 20.0616 19.1949 19.5346 19.1949 18.8947V14.1146C19.1949 13.4747 18.6639 12.9478 18.019 12.9478C17.3741 12.9478 16.843 13.4747 16.843 14.1146V18.8571C16.843 19.5346 17.3741 20.0616 18.019 20.0616Z" fill="black"/>
<path d="M18.019 23.9386C18.7941 23.9386 19.4226 23.3151 19.4226 22.546C19.4226 21.7768 18.7941 21.1533 18.019 21.1533C17.2438 21.1533 16.6154 21.7768 16.6154 22.546C16.6154 23.3151 17.2438 23.9386 18.019 23.9386Z" fill="black"/>
</svg>
