<svg width="45" height="45" viewBox="0 0 45 35" fill="none" xmlns="http://www.w3.org/2000/svg">
<path d="M15.9177 34.9996C15.5469 35.0064 15.1788 34.9311 14.8351 34.7781C14.4915 34.6252 14.1794 34.3977 13.9175 34.1092L0.806325 19.6982C0.289107 19.1282 -0.000935512 18.3558 2.26699e-06 17.5507C0.000940046 16.7457 0.292782 15.9741 0.811326 15.4056C1.32987 14.8371 2.03264 14.5183 2.76503 14.5194C3.49743 14.5204 4.19945 14.8412 4.71667 15.4111L15.9177 27.7226L40.2798 0.890151C40.7983 0.320197 41.5016 0 42.235 0C42.9683 0 43.6716 0.320197 44.1901 0.890151C44.7087 1.46011 45 2.23313 45 3.03917C45 3.8452 44.7087 4.61823 44.1901 5.18818L17.8678 34.1092C17.6125 34.392 17.3087 34.6163 16.9739 34.7692C16.6392 34.922 16.2801 35.0003 15.9177 34.9996Z" fill="black"/>
</svg>
